<?xml version="1.0" encoding="UTF-8"?>
<svg width="259" height="29" version="1.1" viewBox="0 0 259 29" xmlns="http://www.w3.org/2000/svg">
    <g fill="#0f0f0f">
        <path d="m6.117906 22.498564q-1.7317506 0-2.9099089-.738124-1.1781582-.738123-1.8878921-1.97306-.69553918-1.234937-1.0078221-2.725378-.31228292-1.504636-.31228292-3.023466 0-3.804174 1.6607773-6.0185436 1.6749719-2.2143697 4.5139075-2.2143697 1.3910784 0 2.4982632.5961764 1.1071849.5819818 1.76014 1.8169188v-8.2187183h2.611821v22.086918h-2.356317l-.255504-2.00145q-1.405273 2.413096-4.315182 2.413096zm.4684244-2.21437q1.234937 0 1.9872549-.581982.7665126-.581982 1.1639635-1.504636.4116452-.936849.5535922-2.001449.141947-1.078796.141947-2.058229 0-.965238-.141947-2.029838-.141947-1.064601-.5535922-1.987255-.3974509-.936849-1.1639635-1.5188308-.7523179-.5819818-1.9872549-.5819818-1.2491316 0-2.0156442.5819818-.7523179.5819818-1.1497689 1.5188308-.3832563.922654-.5252031 1.987255-.1419467 1.0646-.1419467 2.029838 0 .965239.1419467 2.044034.1419468 1.064601.5252031 2.00145.397451.922654 1.1497689 1.51883.7665126.581982 2.0156442.581982z"/>
        <path d="m25.380083 22.498564q-3.676421 0-5.777234-2.200175-2.086617-2.21437-2.086617-6.032738 0-2.370512.823291-4.2867931.837486-1.9162815 2.469874-3.037661 1.646583-1.1355742 4.059678-1.1355742 3.179608 0 4.925553 2.0440336 1.76014 2.0298389 1.76014 5.6352867v1.277521h-11.313158v.08517q0 2.484069 1.30591 3.960315 1.305911 1.476247 3.860952 1.476247 1.476247 0 2.853131-.468425 1.391078-.468424 2.682794-1.135574v2.597626q-1.348495.553593-2.739573.88007-1.376884.340673-2.824741.340673zm3.562864-9.780133q0-1.320105-.397451-2.384706t-1.277521-1.6891668q-.865875-.6245658-2.299538-.6245658-1.447857 0-2.427289.6387605-.965238.6245658-1.518831 1.6891671-.539398 1.0646-.681344 2.370511z"/>
        <path d="m43.265376 22.498564q-2.512457 0-4.230013-1.050407-1.703362-1.0646-2.583432-2.952493-.865875-1.887892-.865875-4.343571 0-2.469874.88007-4.3435712.88007-1.8878922 2.597626-2.9382983 1.717556-1.0646008 4.258403-1.0646008 1.320105 0 2.384706.3122829 1.064601.2980882 2.171786.9084594v2.7395727q-1.007822-.8942647-2.029839-1.320105-1.007822-.4258403-2.299538-.4258403-1.916281 0-3.06605.8232913-1.135575.8232913-1.646583 2.2143693-.496814 1.391079-.496814 3.09444 0 1.689167.511009 3.09444.511008 1.391078 1.646582 2.21437 1.135575.823291 3.037661.823291 1.249132 0 2.327927-.411646 1.078796-.411645 2.015645-1.30591v2.711183q-2.029839 1.220743-4.613271 1.220743z"/>
        <path d="m58.183982 3.3073594q-.42584 0-.42584-.4258403v-2.4556792q0-.42584032.42584-.42584032h2.044034q.42584 0 .42584.42584032v2.4556792q0 .4258403-.42584.4258403zm4.769412 18.893116q-2.342122 0-3.633838-1.504636-1.277521-1.51883-1.277521-4.258403v-8.2045234h-3.477696v-2.0440336h6.089517v10.248557q0 1.731751.652955 2.64021.652955.90846 1.902087.90846h3.051856v2.214369z"/>
        <path d="m69.809423 6.188879h2.143396l.227115 1.362689q.965238-1.7459453 2.85313-1.7459453 2.029839 0 2.824741 2.0014495.965238-2.0014495 3.037661-2.0014495 1.930476 0 2.696989 1.4478571.780707 1.4904411.780707 5.6210922v9.212346h-2.384706v-9.098788q0-1.78853-.09936-2.767963-.085171-.9794323-.283896-1.4478567-.354867-.7807073-1.405273-.7807073-1.078796 0-1.490441.8516807-.24131.4968137-.340673 1.4478573-.09936.951043-.09936 2.696989v9.098788h-2.384708v-9.098788q0-1.717556-.09936-2.725379-.09936-1.0078217-.312283-1.476246-.383256-.794902-1.433662-.794902-1.050407 0-1.433663.837486-.227115.4826191-.326477 1.476246-.09936.979433-.09936 2.682795v9.098788h-2.370511z"/>
        <path d="m92.989331 22.498564q-2.299538 0-3.804174-1.320105-1.490441-1.3343-1.490441-3.818369 0-2.058228.993627-3.207997.993628-1.163963 2.597626-1.632388 1.603999-.468424 3.420918-.468424h3.506085v-.411646q0-2.0298387-1.036211-2.8247407-1.022017-.7949019-2.88152-.7949019-1.447857 0-2.838935.397451-1.391079.3974509-2.597626 1.1071848v-2.6118207q1.30591-.482619 2.64021-.7949019 1.334299-.3122829 2.725378-.3122829 1.419468 0 2.753767.397451 1.348495.3832563 2.327927 1.2775209.979438.8800701 1.305908 2.3705112.22712 1.0504062.22712 3.1654132v3.250581q0 1.3343.14194 2.952493.15615 1.618193.69554 2.867325h-2.626012q-.241309-.553593-.383256-1.178158-.141947-.638761-.227115-1.234937-.837486 1.433662-2.327927 2.129201-1.476247.69554-3.122829.69554zm.63876-2.185981q1.618194 0 2.626016-.794902 1.022016-.794902 1.490441-2.072423.468424-1.291715.468424-2.767962v-.581982h-3.30736q-1.107185 0-2.171785.255505-1.050407.241309-1.745946.936848-.681344.69554-.681344 2.029839 0 1.504636.922654 2.256954.922654.738123 2.3989.738123z"/>
        <path d="m114.92011 22.200475q-2.34212 0-3.63384-1.504636-1.27752-1.51883-1.27752-4.258403v-14.393403h-4.18743v-2.0440335h6.79925v16.437436q0 1.731751.65295 2.64021.65296.90846 1.90209.90846h3.05186v2.214369z"/>
    </g>
    <g fill="#c83737">
        <path d="m129.46965 22.470174q-.96524 0-1.63239-.66715t-.66715-1.73175q0-1.064601.66715-1.731751t1.63239-.66715 1.63239.66715.66715 1.731751q0 1.0646-.66715 1.73175t-1.63239.66715z"/>
        <path d="m147.52528 3.3073594q-.42584 0-.42584-.4258403v-2.4556792q0-.42584032.42584-.42584032h2.04403q.42584 0 .42584.42584032v2.4556792q0 .4258403-.42584.4258403zm-5.8766 22.612122h3.32156q2.55504 0 2.55504-3.54867v-14.152093h-4.49971v-2.0298389h7.11153v16.181932q0 2.753768-1.27752 4.258404t-3.60545 1.504636h-3.60545z"/>
        <path d="m164.13306 22.498564q-2.27115 0-5.3372-.993628v-2.696989q2.98088 1.504636 5.30881 1.504636 1.66078 0 2.65441-.695539.99362-.695539.99362-1.859503 0-1.007822-.83748-1.618193-.82329-.624566-2.64021-1.007822l-1.09299-.227115q-2.24276-.45423-3.29317-1.490441-1.03621-1.050406-1.03621-2.85313 0-2.2853434 1.56142-3.5202804 1.56141-1.2349369 4.44293-1.2349369 2.44148 0 4.72683.9368487v2.555042q-2.22857-1.3059104-4.65586-1.3059104-3.43511 0-3.43511 2.342122 0 .766512.29809 1.220742.29809.440035 1.13557.752318.83749.298088 2.46988.624566l1.0504.198725q3.94612.780708 3.94612 4.300988 0 2.356316-1.67497 3.719005-1.67497 1.348495-4.58488 1.348495z"/>
    </g>
    <g fill="#2c89a0">
        <path d="m176.19853 12.391953h11.65383v2.327927h-11.65383z"/>
        <path d="m198.20027 3.3073594q-.42584 0-.42584-.4258403v-2.4556792q0-.42584032.42584-.42584032h2.04403q.42584 0 .42584.42584032v2.4556792q0 .4258403-.42584.4258403zm4.76941 18.893116q-2.34212 0-3.63383-1.504636-1.27753-1.51883-1.27753-4.258403v-8.2045234h-3.47769v-2.0440336h6.08951v10.248557q0 1.731751.65296 2.64021.65296.90846 1.90209.90846h3.05185v2.214369z"/>
        <path d="m212.11106 19.673823h4.45713v-15.2025l-3.37833 3.8467576-1.56142-1.9020868 4.91136-5.5217296h2.86733v18.779559h4.40035v2.413095h-11.69642z"/>
        <path d="m234.51027 22.498564q-3.22219 0-5.0533-1.589804-1.81692-1.589804-1.81692-4.499713 0-2.256954 1.13557-3.690616 1.12138-1.419468 3.25058-1.887892-.86587-.212921-1.604-.652956-.73812-.4400346-1.24913-1.0787951-.5394-.6671499-.7949-1.4620518-.24131-.7949019-.24131-1.6891666 0-2.4556793 1.71756-3.9603151.83748-.7239285 1.98725-1.0929902 1.16396-.38325629 2.6828-.38325629 2.96668 0 4.68424 1.4762464 1.71755 1.4620518 1.71755 3.9745097 0 1.8736975-1.02201 3.1370238-1.00782 1.2491321-2.86733 1.7317511 2.1434.468424 3.26478 1.887892 1.12138 1.419467 1.12138 3.662226 0 1.490442-.48262 2.626016-.46842 1.121379-1.34849 1.887892-1.84531 1.603999-5.0817 1.603999zm.0142-12.732626q1.73175 0 2.64021-.8942647.90845-.8942646.90845-2.597626 0-1.7317506-.89426-2.64021-.90846-.9084593-2.6544-.9084593-1.71756 0-2.62602.9084593-.90846.9084594-.90846 2.64021 0 1.7033614.90846 2.597626.90846.8942647 2.62602.8942647zm.0426 10.489866q1.88789 0 2.9241-1.078795 1.05041-1.09299 1.05041-3.023466 0-1.050406-.28389-1.802724-.2697-.752318-.76652-1.249132-1.0646-1.078796-2.96668-1.078796-1.90209 0-2.9525 1.064601-1.0504 1.078796-1.0504 3.023467 0 1.958865 1.0504 3.051855 1.0788 1.09299 2.99508 1.09299z"/>
        <path d="m246.05054 6.188879h2.35631l.25551 2.3847058q1.43366-2.7679621 4.67005-2.7679621 4.86877 0 4.86877 6.4301893v9.851106h-2.62602v-9.851106q0-2.143397-.75231-3.1512188-.73813-1.0078221-2.29954-1.0078221-1.8595 0-2.86733 1.320105-.99362 1.3059099-.99362 3.7048109v8.985231h-2.61182z"/>
    </g>
</svg>
